<svg xmlns="http://www.w3.org/2000/svg" width="1600" height="820" viewBox="0 0 1600 820">
<rect width="100%" height="100%" fill="#090d16"/>
<text x="24" y="28" fill="#e2e8f0" font-family="DejaVu Sans, sans-serif" font-size="22" font-weight="700">SIH26168 — Cooperative V2X navigation</text>
<text x="24" y="48" fill="#ffba49" font-family="DejaVu Sans, sans-serif" font-size="12">SIMULATION · MODE A · V2X RADIO: SIMULATED · Toy filter — not Member 3</text>
<rect x="24" y="64" width="1080" height="520" fill="#0c101a" stroke="#2a3852"/>
<rect x="1120" y="64" width="456" height="520" fill="#101624" stroke="#2a3852"/>
<text x="1144" y="86" fill="#e2e8f0" font-family="DejaVu Sans, sans-serif" font-size="16" font-weight="700">SYSTEM STATUS</text>
<text x="800" y="36" text-anchor="middle" fill="#e2e8f0" font-family="DejaVu Sans, sans-serif" font-size="14">GNSS is lost.</text>
<polyline fill="none" stroke="#f4d35e" stroke-width="2" points="564.0,1199.4 564.0,1192.7 564.0,1186.0 564.0,1179.3 564.0,1172.6 564.0,1165.8 564.0,1159.1 564.0,1152.4 564.0,1145.7 564.0,1139.0 564.0,1132.2 564.0,1125.5 564.0,1118.8 564.0,1112.1 564.0,1105.4 564.0,1098.6 564.0,1091.9 564.0,1085.2 564.0,1078.5 564.0,1071.8 564.0,1065.0 564.0,1058.3 564.0,1051.6 564.0,1044.9 564.0,1038.2 564.0,1031.4 564.0,1024.7 564.0,1018.0 564.0,1011.3 564.0,1004.6 564.0,997.8 564.0,991.1 564.0,984.4 564.0,977.7 564.0,971.0 564.0,964.2 564.0,957.5 564.0,950.8 564.0,944.1 564.0,937.4 564.0,930.6 564.0,923.9 564.0,917.2 564.0,910.5 564.0,903.8 564.0,897.0 564.0,890.3 564.0,883.6 564.0,876.9 564.0,870.2 564.0,863.4 564.0,856.7 564.0,850.0 564.0,843.3 564.0,836.6 564.0,829.8 564.0,823.1 564.0,816.4 564.0,809.7 564.0,803.0 564.0,796.2 564.0,789.5 564.0,782.8 564.0,776.1 564.0,769.4 564.0,762.6 564.0,755.9 564.0,749.2 564.0,742.5 564.0,735.8 564.0,729.0 564.0,722.3 564.0,715.6 564.0,708.9 564.0,702.2 564.0,695.4 564.0,688.7 564.0,682.0 564.0,675.3 564.0,668.6 564.0,661.8 564.0,655.1 564.0,648.4 564.0,641.7 564.0,635.0 564.0,628.2 564.0,621.5 564.0,614.8 564.0,608.1 564.0,601.4 564.0,594.6 564.0,587.9 564.0,581.2 564.0,574.5 564.0,567.8 564.0,561.0 564.0,554.3 564.0,547.6 564.0,540.9 564.0,534.2 564.0,527.4 564.0,520.7"/>
<polyline fill="none" stroke="#e86e6e" stroke-width="2" points="557.7,1207.9 558.1,1188.7 560.0,1183.1 564.5,1179.3 563.4,1169.9 567.6,1163.6 567.8,1156.1 569.2,1149.9 567.6,1146.0 567.2,1141.3 566.0,1136.3 566.5,1127.7 565.3,1120.6 565.8,1111.7 565.6,1106.2 565.4,1101.8 565.5,1095.5 567.8,1088.7 564.3,1081.8 563.0,1073.8 563.8,1066.1 562.2,1059.4 564.6,1051.9 564.0,1044.3 564.2,1036.4 565.3,1027.6 565.7,1022.5 566.6,1018.8 566.7,1011.1 565.6,1003.2 564.7,999.7 562.3,994.9 562.8,988.2 563.4,982.6 562.6,973.2 564.3,965.7 562.1,960.9 562.1,952.9 564.3,947.5 565.0,939.5 566.0,931.0 562.9,922.2 563.9,914.8 565.5,906.6 565.1,898.9 565.5,894.0 568.5,888.6 566.4,882.3 566.6,874.2 564.5,866.1 566.7,859.1 567.1,853.1 568.1,847.0 566.5,842.5 567.4,838.1 566.0,828.5 564.2,824.1 563.1,818.1 557.4,810.0 562.6,805.2 563.5,800.2 565.3,790.2 566.1,784.6 566.6,775.3 566.7,769.1 564.8,761.3 566.2,754.5 565.8,748.6 562.9,743.0 561.9,737.1 560.1,728.2 560.9,722.7 562.0,716.9 560.9,707.7 561.7,703.1 558.9,696.0 561.4,692.1 563.0,685.2 561.8,676.9 563.9,668.8 567.1,662.5 567.7,655.7 566.6,647.8 563.8,641.4 564.5,634.3 563.6,627.2 564.1,619.7 562.6,615.0 563.6,609.9 565.0,605.1 564.5,599.2 564.2,592.0 561.2,585.8 565.6,579.7 564.4,570.1 564.6,563.1 563.5,553.1 562.9,543.8 560.6,539.3 559.6,534.5 559.6,527.8 559.5,521.1"/>
<polyline fill="none" stroke="#40d6c4" stroke-width="3" points="557.7,1207.9 558.1,1188.7 560.0,1183.1 564.5,1179.3 563.4,1169.9 567.6,1163.6 567.8,1156.1 569.2,1149.9 567.6,1146.0 567.2,1141.3 566.0,1136.3 566.5,1127.7 565.3,1120.6 565.8,1111.7 565.6,1106.2 565.4,1101.8 565.5,1095.5 567.8,1088.7 564.3,1081.8 563.0,1073.8 563.8,1066.1 562.2,1059.4 564.6,1051.9 564.0,1044.3 564.2,1036.4 565.3,1027.6 565.7,1022.5 566.6,1018.8 566.7,1011.1 565.6,1003.2 564.7,999.7 562.3,994.9 562.8,988.2 563.4,982.6 562.6,973.2 564.3,965.7 562.1,960.9 562.1,952.9 564.3,947.5 565.0,939.5 566.0,931.0 562.9,922.2 563.9,914.8 565.5,906.6 565.1,898.9 565.5,894.0 568.5,888.6 566.4,882.3 566.6,874.2 564.5,866.1 566.7,859.1 567.1,853.1 568.1,847.0 566.5,842.5 567.4,838.1 566.0,828.5 564.2,824.1 563.1,818.1 557.4,810.0 562.6,805.2 563.5,800.2 565.3,790.2 566.1,784.6 566.6,775.3 566.7,769.1 564.8,761.3 566.2,754.5 565.8,748.6 562.9,743.0 561.9,737.1 560.1,728.2 560.9,722.7 562.0,716.9 560.9,707.7 561.7,703.1 558.9,696.0 561.4,692.1 563.0,685.2 561.8,676.9 563.9,668.8 567.1,662.5 567.7,655.7 566.6,647.8 563.8,641.4 564.5,634.3 563.6,627.2 564.1,619.7 562.6,615.0 563.6,609.9 565.0,605.1 564.5,599.2 564.2,592.0 561.2,585.8 565.6,579.7 564.4,570.1 564.6,563.1 563.5,553.1 562.9,543.8 560.6,539.3 559.6,534.5 559.3,527.6 558.6,521.2"/>
<line x1="548.5" y1="438.4" x2="564.0" y2="514.0" stroke="#3ddc97" stroke-width="4.5"/>
<line x1="564.0" y1="387.7" x2="564.0" y2="514.0" stroke="#3ddc97" stroke-width="4.5"/>
<line x1="579.5" y1="336.9" x2="564.0" y2="514.0" stroke="#3ddc97" stroke-width="4.5"/>
<rect x="555.0" y="501.4" width="18" height="25.2" fill="#3ddc97" stroke="#fff"/>
<text x="576.0" y="504.0" fill="#3ddc97" font-size="11" font-family="DejaVu Sans, sans-serif">YOU</text>
<rect x="541.46" y="428.59999999999997" width="14" height="19.599999999999998" fill="#6e9eff" stroke="#fff"/>
<text x="560.46" y="428.4" fill="#6e9eff" font-size="11" font-family="DejaVu Sans, sans-serif">R1 σpos 2.5 m</text>
<rect x="557.0" y="377.86400000000003" width="14" height="19.599999999999998" fill="#6e9eff" stroke="#fff"/>
<text x="576.0" y="377.66400000000004" fill="#6e9eff" font-size="11" font-family="DejaVu Sans, sans-serif">R2 σpos 2.5 m</text>
<rect x="572.54" y="327.128" width="14" height="19.599999999999998" fill="#6e9eff" stroke="#fff"/>
<text x="591.54" y="326.928" fill="#6e9eff" font-size="11" font-family="DejaVu Sans, sans-serif">R3 σpos 2.5 m</text>
<text x="1144" y="112" fill="#e85d5d" font-size="14" font-family="DejaVu Sans, sans-serif">GNSS DENIED</text>
<text x="1144" y="136" fill="#3ddc97" font-size="14" font-family="DejaVu Sans, sans-serif">V2X ACTIVE  (3 nearby)</text>
<text x="1144" y="160" fill="#3ddc97" font-size="14" font-family="DejaVu Sans, sans-serif">MEASUREMENT ACCEPTED</text>
<text x="1144" y="184" fill="#ffba49" font-size="14" font-family="DejaVu Sans, sans-serif">V2X RADIO: SIMULATED</text>
<text x="1144" y="208" fill="#e86e6e" font-size="14" font-family="DejaVu Sans, sans-serif">Baseline 2.01 m</text>
<text x="1144" y="232" fill="#40d6c4" font-size="14" font-family="DejaVu Sans, sans-serif">V2X-assisted 2.15 m</text>
<text x="1144" y="256" fill="#94a3b8" font-size="14" font-family="DejaVu Sans, sans-serif">t=10.2s  received 299</text>
<text x="1144" y="280" fill="#94a3b8" font-size="14" font-family="DejaVu Sans, sans-serif">ACCEPT 2  DOWNWEIGHT 0  REJECT 0</text>
<text x="1144" y="304" fill="#e2e8f0" font-size="14" font-family="DejaVu Sans, sans-serif">Innovation NIS 0.08  ACCEPT</text>
<text x="1144" y="328" fill="#94a3b8" font-size="14" font-family="DejaVu Sans, sans-serif">Toy filter — not Member 3</text>
<text x="1144" y="560" fill="#e85d5d" font-size="16" font-weight="700" font-family="DejaVu Sans, sans-serif">GNSS SIGNAL LOST</text>
<rect x="224" y="80" width="680" height="44" fill="#5a1a1a" stroke="#e85d5d"/>
<text x="564" y="108" text-anchor="middle" fill="#ffe8e8" font-size="20" font-weight="700" font-family="DejaVu Sans, sans-serif">GNSS SIGNAL LOST</text>
</svg>